<?xml version="1.0" standalone="no"?><!DOCTYPE svg PUBLIC "-//W3C//DTD SVG 1.1//EN" "http://www.w3.org/Graphics/SVG/1.1/DTD/svg11.dtd"><svg t="1652841524977" class="icon" viewBox="0 0 1024 1024" version="1.1" xmlns="http://www.w3.org/2000/svg" p-id="1012" xmlns:xlink="http://www.w3.org/1999/xlink" width="200" height="200"><defs><style type="text/css">@font-face { font-family: feedback-iconfont; src: url("//at.alicdn.com/t/font_1031158_u69w8yhxdu.woff2?t=1630033759944") format("woff2"), url("//at.alicdn.com/t/font_1031158_u69w8yhxdu.woff?t=1630033759944") format("woff"), url("//at.alicdn.com/t/font_1031158_u69w8yhxdu.ttf?t=1630033759944") format("truetype"); }
</style></defs><path d="M255.978667 789.354667a21.333333 21.333333 0 0 1-21.333334-21.333334v-512a21.333333 21.333333 0 0 1 21.333334-21.333333h512a21.333333 21.333333 0 0 1 21.333333 21.333333v512a21.333333 21.333333 0 0 1-21.333333 21.333334z m501.333333-32v-59.050667l-53.674667 59.050667z m-94.101333 0l86.805333-95.381334a14.933333 14.933333 0 0 1 7.296-4.416v-70.4l-159.722667 170.154667z m-106.538667 0l189.866667-202.218667a15.082667 15.082667 0 0 1 10.88-4.714667v-23.466666H700.8a14.933333 14.933333 0 0 1-3.669333 6.186666L477.525333 757.333333z m-120.981333 0l225.578666-230.4H579.626667a14.933333 14.933333 0 0 1-3.669334 6.186666L356.352 757.333333z m-169.088 0h48.021333l225.578667-230.4h-60.309334a15.061333 15.061333 0 0 1-3.925333 6.4l-198.933333 192a15.125333 15.125333 0 0 1-10.432 4.266666z m0-63.424l172.992-166.954667H364.373333a15.104 15.104 0 0 1-2.133333 2.517333l-95.594667 89.216z m0-116.096l54.506666-50.858667h-54.506666z m490.666666-80.725334v-230.4h-490.666666v230.4z" p-id="1013" fill="#f4ea2a"></path><path d="M437.994667 421.76h-42.666667a10.666667 10.666667 0 0 1-10.666667-10.666667 10.666667 10.666667 0 0 1 10.666667-10.666666h16.896l-57.258667-57.216a10.794667 10.794667 0 0 1 0-15.125334 10.837333 10.837333 0 0 1 15.125334 0l57.216 57.28v-16.896a10.666667 10.666667 0 0 1 10.666666-10.666666 10.666667 10.666667 0 0 1 10.666667 10.666666V413.589333a10.666667 10.666667 0 0 1-8.341333 7.957334h-2.304z" p-id="1014" fill="#f4ea2a"></path><path d="M544.64 421.76h-42.666667a10.666667 10.666667 0 0 1-10.666666-10.666667 10.666667 10.666667 0 0 1 10.666666-10.666666h16.896l-57.258666-57.216a10.794667 10.794667 0 0 1 0-15.125334 10.837333 10.837333 0 0 1 15.125333 0l57.216 57.28v-16.896a10.666667 10.666667 0 0 1 10.666667-10.666666 10.666667 10.666667 0 0 1 10.666666 10.666666V413.589333a10.666667 10.666667 0 0 1-8.341333 7.957334h-2.304z" p-id="1015" fill="#f4ea2a"></path><path d="M662.762667 421.76h-42.666667a10.666667 10.666667 0 0 1-10.666667-10.666667 10.666667 10.666667 0 0 1 10.666667-10.666666h16.896l-57.258667-57.216a10.794667 10.794667 0 0 1 0-15.125334 10.837333 10.837333 0 0 1 15.125334 0l57.216 57.28v-16.896a10.666667 10.666667 0 0 1 10.666666-10.666666 10.666667 10.666667 0 0 1 10.666667 10.666666V413.589333a10.666667 10.666667 0 0 1-8.341333 7.957334h-2.304z" p-id="1016" fill="#f4ea2a"></path></svg>